<?xml version="1.0" standalone="no"?>
<!DOCTYPE svg PUBLIC "-//W3C//DTD SVG 20010904//EN"
 "http://www.w3.org/TR/2001/REC-SVG-20010904/DTD/svg10.dtd">
<svg version="1.0" xmlns="http://www.w3.org/2000/svg"
 width="1080.000000pt" height="1080.000000pt" viewBox="0 0 1080.000000 1080.000000"
 preserveAspectRatio="xMidYMid meet">

<g transform="translate(0.000000,1080.000000) scale(0.100000,-0.100000)"
fill="#ff3131" stroke="none">
<path d="M5177 9750 c-655 -51 -1158 -313 -1459 -759 -168 -251 -285 -572
-347 -961 -58 -359 -231 -1994 -466 -4400 -52 -536 -117 -1204 -145 -1484 -54
-546 -55 -599 -14 -736 49 -168 174 -315 334 -393 216 -106 460 -124 692 -51
316 100 528 315 610 619 23 88 24 98 168 1529 66 654 121 1190 122 1191 2 1
55 -8 118 -21 327 -67 786 -92 1090 -60 526 56 968 186 1370 405 546 298 961
725 1234 1268 427 854 334 1729 -268 2503 -110 142 -362 394 -521 520 -343
274 -754 497 -1170 635 -466 156 -954 226 -1348 195z m535 -1685 c514 -95
1068 -441 1263 -788 101 -181 115 -356 48 -572 -136 -432 -526 -693 -1152
-771 -283 -35 -706 -3 -969 72 l-52 15 5 37 c7 48 73 769 85 932 5 69 14 233
20 365 11 270 22 340 75 475 20 52 39 110 42 128 8 45 38 66 135 92 174 47
306 51 500 15z"/>
</g>
</svg>
